<svg xmlns="http://www.w3.org/2000/svg" xmlns:xlink="http://www.w3.org/1999/xlink" aria-hidden="true" role="img" class="iconify iconify--custom" style="" width="1em" height="1em" viewBox="0 0 24 24" data-v-025df6df=""><g fill="currentColor"><path d="M6.8 3c-1.68 0-2.66-.05-3.62.44a4 4 0 0 0-1.74 1.74c-.3.57-.38 1.2-.41 1.94v.07C1 7.67 1 8.15 1 8.8v6.4c0 1.68-.05 2.66.44 3.62a4 4 0 0 0 1.74 1.74c.96.5 1.94.44 3.62.44h10.4c1.68 0 2.66.05 3.62-.44a4 4 0 0 0 1.74-1.74c.5-.96.44-1.94.44-3.62V8.8c0-.64 0-1.12-.03-1.6a1 1 0 0 0 0-.44 4 4 0 0 0-.4-1.58 4 4 0 0 0-1.75-1.74c-.96-.5-1.94-.44-3.62-.44Zm0 2h10.4c1.68 0 2.38.05 2.7.22q.58.3.88.87c.03.06.02.42.04.51l-7.56 5.3c-.66.46-.91.6-1.02.63a1 1 0 0 1-.48 0c-.1-.03-.36-.17-1.02-.63L3.18 6.6c.02-.09 0-.45.04-.5a2 2 0 0 1 .87-.88C4.42 5.05 5.12 5 6.8 5M3 8.92l4.54 3.18-4.46 4.03c-.02-.37-.08-.35-.08-.93Zm18 0v6.28c0 .58-.06.56-.08.93l-4.46-4.03ZM9.22 13.28l.37.26c.66.46 1.07.78 1.68.93a3 3 0 0 0 1.46 0c.6-.15 1.02-.47 1.68-.93l.37-.26 5.59 5.04c-.16.16-.26.36-.46.46-.33.17-1.03.22-2.71.22H6.8c-1.68 0-2.38-.05-2.7-.22-.2-.1-.31-.3-.47-.46Z"></path></g></svg>