<svg width="24" height="24" viewBox="0 0 24 24" fill="none" xmlns="http://www.w3.org/2000/svg">
    <path d="M13.4642 19.8295H22.386C22.6694 19.8295 22.9478 19.7572 23.1932 19.6197C23.437 19.4838 23.6408 19.2861 23.784 19.0465C23.9253 18.8097 23.9999 18.5392 24 18.2635C23.9997 17.9878 23.9248 17.7173 23.7833 17.4807L17.7916 7.41419C17.6484 7.17468 17.4447 6.97706 17.2009 6.84119C16.9543 6.70339 16.6764 6.63112 16.3939 6.63129C16.1106 6.63129 15.8323 6.70369 15.5869 6.84109C15.3431 6.97699 15.1394 7.17464 14.9962 7.41419L13.4642 9.98999L10.4688 4.95339C10.3255 4.71386 10.1216 4.51625 9.8778 4.38039C9.63111 4.24264 9.35324 4.17041 9.0707 4.17059C8.7873 4.17059 8.509 4.24289 8.2635 4.38029C8.01965 4.51615 7.81583 4.71376 7.6725 4.95329L0.2168 17.4808C0.0753049 17.7174 0.000396127 17.9878 1.00538e-07 18.2635C-9.98995e-05 18.5384 0.0744001 18.8085 0.216 19.0465C0.359203 19.2861 0.562965 19.4838 0.8068 19.6197C1.0522 19.7572 1.3306 19.8295 1.614 19.8295H7.2143C9.4333 19.8295 11.0697 18.8841 12.1956 17.0396L14.9293 12.4474L16.3935 9.98999L20.7879 17.372H14.9293L13.4642 19.8295ZM7.123 17.3694L3.2147 17.3685L9.0733 7.52639L11.9965 12.4474L10.0393 15.7366C9.2915 16.9333 8.4421 17.3694 7.123 17.3694Z" fill="#0F172A"/>
</svg>
